<svg xmlns="http://www.w3.org/2000/svg" width="200" height="200" viewBox="0 0 200 200">
  <!-- Fondo redondeado translúcido -->
  <rect width="200" height="200" fill="#ffffff" opacity="0.2" rx="20" ry="20"/>
  
  <!-- Texto G y K simplificado -->
  <path d="M65,60 C50,60 40,75 40,90 C40,110 55,120 70,120 C85,120 95,110 95,95 L75,95 C75,100 72,105 65,105 C58,105 55,95 55,90 C55,80 60,75 65,75 C72,75 75,78 75,85 L95,85 C95,70 80,60 65,60 Z" fill="#B8860B"/>
  <path d="M130,120 L145,60 L130,60 L115,100 L115,60 L100,60 L100,120 L115,120 L115,105 L120,95 L130,120 Z" fill="#B8860B"/>
  
  <!-- Corazón -->
  <path d="M100,140 C110,130 120,130 125,135 C130,140 125,150 100,165 C75,150 70,140 75,135 C80,130 90,130 100,140 Z" fill="#B8860B"/>
</svg> 